<?xml version="1.0" encoding="iso-8859-1"?><!-- Generator: Adobe Illustrator 21.1.0, SVG Export Plug-In . SVG Version: 6.00 Build 0)  --><svg xmlns="http://www.w3.org/2000/svg" xmlns:xlink="http://www.w3.org/1999/xlink" viewBox="0 0 50 50" width="500px" height="500px"><g><path style="fill:none;stroke:#000000;stroke-width:2;stroke-miterlimit:10;" d="M25,3C12.852,3,3,12.852,3,25s9.852,22,22,22s22-9.852,22-22S37.148,3,25,3L25,3z"/></g><path style="fill:none;stroke:#000000;stroke-width:2;stroke-linecap:round;stroke-miterlimit:10;" d="M43.365,36.957c0,0-3.774,2.043-8.365,2.043c-16.07,0-20.739-7-26-7c-2.87,0-3.609,2.47-3.609,2.47"/><path style="fill:none;stroke:#000000;stroke-width:2;stroke-linecap:round;stroke-miterlimit:10;" d="M3.765,19.643c0,0,2.878-4.643,8.235-4.643c10.33,0,17.878,16.696,33.852,16.696"/><path style="fill:none;stroke:#000000;stroke-width:2;stroke-linecap:round;stroke-linejoin:round;stroke-miterlimit:10;" d="M8.548,10.461c0,0,2-2.461,7.452-2.461c6.504,0,11.965,7.148,16.461,11.07c4.496,4.017,10.522,8.704,14.348,8.704"/><path style="fill:none;stroke:#000000;stroke-width:2;stroke-linecap:round;stroke-linejoin:round;stroke-miterlimit:10;" d="M46.139,18.878C45.661,17.922,45.817,20,44,20c-4.687,0-7.896-15-21-15c0,0-7.278-0.374-10.722,2.017"/><path style="fill:none;stroke:#000000;stroke-width:2;stroke-linecap:round;stroke-miterlimit:10;" d="M16.391,45.183c0,0-3.122-5.183,0.609-5.183c3.061,0,6.687,3,13,3s10.304-2.217,10.304-2.217"/><g><circle cx="19" cy="27" r="1"/><circle cx="16" cy="30" r="1"/><circle cx="16" cy="24" r="1"/><circle cx="22" cy="24" r="1"/><circle cx="19" cy="21" r="1"/><circle cx="10" cy="24" r="1"/><circle cx="4" cy="24" r="1"/><circle cx="7" cy="21" r="1"/><circle cx="13" cy="27" r="1"/><circle cx="13" cy="33" r="1"/><circle cx="13" cy="21" r="1"/><circle cx="10" cy="30" r="1"/><circle cx="16" cy="18" r="1"/><circle cx="10" cy="18" r="1"/><circle cx="7" cy="27" r="1"/><circle cx="19" cy="33" r="1"/><circle cx="4" cy="30" r="1"/><circle cx="22" cy="30" r="1"/><circle cx="34" cy="30" r="1"/><circle cx="40" cy="24" r="1"/><circle cx="37" cy="21" r="1"/><circle cx="40" cy="18" r="1"/><circle cx="37" cy="15" r="1"/><circle cx="31" cy="27" r="1"/><circle cx="31" cy="33" r="1"/><circle cx="31" cy="15" r="1"/><circle cx="28" cy="30" r="1"/><circle cx="34" cy="18" r="1"/><circle cx="25" cy="27" r="1"/><circle cx="37" cy="33" r="1"/><circle cx="25" cy="33" r="1"/><circle cx="46" cy="24" r="1"/><circle cx="43" cy="21" r="1"/><circle cx="43" cy="33" r="1"/><circle cx="16" cy="42" r="1"/><circle cx="22" cy="36" r="1"/><circle cx="19" cy="45" r="1"/><circle cx="34" cy="36" r="1"/><circle cx="40" cy="36" r="1"/><circle cx="28" cy="36" r="1"/><circle cx="31" cy="45" r="1"/><circle cx="25" cy="45" r="1"/><circle cx="16" cy="6" r="1"/><circle cx="22" cy="6" r="1"/><circle cx="34" cy="12" r="1"/><circle cx="28" cy="6" r="1"/><circle cx="31" cy="9" r="1"/><circle cx="28" cy="12" r="1"/><circle cx="25" cy="9" r="1"/></g></svg>